# xmcd
#
# Track frame offsets:
#  150
#  20201
#  36836
#  55413
#  69220
#  86144
#  106418
#  133017
#  146682
#  159200
#  180929
#  197667
#  216437
#  236198
#
# Disc length: 3355 seconds
#
# Revision: 0
# Processed by: cddbd v1.5.1PL2 Copyright (c) Steve Scherf et al.
# Submitted via: Collectorz.com_Music_Collector 6.10
#
DISCID=ca0d190e
DTITLE=G.M. and The Bluesbusters - Jumpin' Rockin' Rhythm
DYEAR=2001
DGENRE=Blues
TTITLE0=Fishnet
TTITLE1=Jumpin' Rockin' Rhythm
TTITLE2=I Need My Baby
TTITLE3=That's All Right, Mama
TTITLE4=Motorhead Baby
TTITLE5=Too Hot To Handle
TTITLE6=G.M. Shuffle
TTITLE7=Nadine
TTITLE8=It Comes To Me Naturally
TTITLE9=How Long, Baby
TTITLE10=Midnight Cannonball
TTITLE11=Kansas City
TTITLE12=High Heel Sneakers
TTITLE13=Look At That
EXTD=
EXTT0=
EXTT1=
EXTT2=
EXTT3=
EXTT4=
EXTT5=
EXTT6=
EXTT7=
EXTT8=
EXTT9=
EXTT10=
EXTT11=
EXTT12=
EXTT13=
PLAYORDER=
